<svg xmlns="http://www.w3.org/2000/svg" viewBox="0 0 512 512"><!--! Font Awesome Free 6.4.0 by @fontawesome - https://fontawesome.com License - https://fontawesome.com/license/free (Icons: CC BY 4.0, Fonts: SIL OFL 1.1, Code: MIT License) Copyright 2023 Fonticons, Inc. --><path fill="#4d7c0f" d="M512 64c0 113.6-84.6 207.5-194.2 222c-7.1-53.4-30.6-103-67-144.1C212.9 101.3 158.8 70.8 100 64c-58.8-6.1-118-2.6-173.8 2.6c-4.3 .4-8.2 3.1-9.9 7.1s-1.3 8.6 1.1 12.1L128 256 0 427.1c-2.4 3.5-2.8 8.1-1.1 12.1s5.6 6.7 9.9 7.1C64.6 451.5 123.8 455 182.6 448.9c58.8-6.1 112.9-36.6 150.8-77.9c36.4-41.1 59.9-90.7 67-144.1c109.6 14.5 194.2 108.4 194.2 222V448c0 17.7 14.3 32 32 32s32-14.3 32-32V64c0-17.7-14.3-32-32-32H448c-17.7 0-32 14.3-32 32z"/></svg>
